<svg xmlns="http://www.w3.org/2000/svg" viewBox="0 0 308.99 202.83"><defs><style>.cls-1{fill:#ededeb;}.cls-2{fill:#ededed;}.cls-3{fill:#869135;}.cls-4{fill:#97a43c;}.cls-5{fill:#48753a;}.cls-6{fill:#ffc654;}.cls-7{fill:#4da8f2;}.cls-8{fill:#216dad;}.cls-9{fill:#2783cf;}.cls-10{fill:#db164a;}.cls-11{fill:#eea886;}.cls-12{fill:#cf8c6c;}.cls-13{fill:#db9c7c;}.cls-14{fill:#292c47;}.cls-15{fill:#3d416b;}.cls-16{fill:#cfbeb6;}.cls-17{fill:#d88a51;}.cls-18{fill:#eddad3;}.cls-19{fill:#a77860;}.cls-20{fill:#faa146;}.cls-21{fill:#23263d;}.cls-22{fill:#6e4629;}.cls-23{fill:#b57343;}.cls-24{fill:#efaa88;}.cls-25{fill:#323657;}.cls-26{fill:#1d2133;}.cls-27{fill:#16202e;}.cls-28{fill:#343a5c;}.cls-29{fill:#23344a;}.cls-30{fill:#b0573a;}.cls-31{fill:#e55353;}.cls-32{fill:#326691;}.cls-33{fill:#343a57;}.cls-34{fill:#3d476e;}.cls-35{fill:#985e44;}.cls-36{fill:#fab46c;}.cls-37{fill:#f9cdba;}.cls-38{fill:#4b5182;}.cls-39{fill:#e8734d;}</style></defs><g id="Layer_2" data-name="Layer 2"><g id="Layer_1-2" data-name="Layer 1"><path class="cls-1" d="M17.66,202.75s-35.38-38-6-79.12c26.08-36.49,56.49-34,78.8-19.19,9.51,6.31,36.91.78,60.22-36.35,31.81-50.64,142-19.93,121.94,58-9.72,37.7,29.6,39.07,9.56,76.76Z"/><path class="cls-2" d="M161.44,59a19,19,0,0,0-5.57.82,15.67,15.67,0,0,0-14.58-9.45,15.49,15.49,0,0,0-15.2,11.36A11.72,11.72,0,0,0,122,61a10.85,10.85,0,0,0-11.11,10.56h66.23C177.09,64.6,170.08,59,161.44,59Z"/><path class="cls-3" d="M286.17,97c-2.13-1.28,4.14-5,8.28-4.09s6.7,2.93,9.61,2.78C304.06,95.7,296.63,103.33,286.17,97Z"/><path class="cls-4" d="M296,69.46s6.88,8-2.23,19.2-7.66,17.06-7.66,17.06S273.27,86.4,296,69.46Z"/><path class="cls-5" d="M287.57,97.79c-4.25.88-.59-11.32,5.78-15.12s12.08-4.2,15.64-7.85C309,74.82,308.53,93.46,287.57,97.79Z"/><rect class="cls-6" x="158.96" y="41.52" width="22.01" height="99.16"/><path class="cls-7" d="M181,79.21v62.53c-10.32,2.24-17.42,4.39-22,6.51v-69Z"/><path class="cls-8" d="M181,85.39V141c-10.32,2-17.42,6-22,7.88V85.39Z"/><path class="cls-6" d="M207.74,14.54v115c-8.44,2.62-15.74,5.18-22,7.69V14.54Z"/><rect class="cls-7" x="185.73" y="51.7" width="22.01" height="80.83"/><polygon class="cls-8" points="207.74 132.34 185.73 137.27 185.73 58.22 207.74 58.22 207.74 132.34"/><path class="cls-6" d="M234.81,0V123.32c-8.44,2.93-15.74,6.4-22,9.21V0Z"/><polygon class="cls-7" points="234.81 121.87 212.8 125.74 212.8 26.07 234.81 26.07 234.81 121.87"/><polygon class="cls-8" points="234.81 121.63 212.8 126.99 212.8 39.62 234.81 39.62 234.81 121.63"/><path class="cls-6" d="M154.17,74.51v84.22c-1.79,1.8-2.37,3.58-2,5.36h-20V74.51Z"/><rect class="cls-7" x="132.16" y="112.44" width="22.01" height="46.34"/><polygon class="cls-8" points="154.17 158.26 132.16 160.14 132.16 118.77 154.17 118.77 154.17 158.26"/><path class="cls-6" d="M127.12,95.78v71.95c-1.79,1.54-2.37,3.07-2,4.58h-20V95.78Z"/><rect class="cls-7" x="105.11" y="130.71" width="22.01" height="46.34"/><polygon class="cls-8" points="127.12 176.53 105.11 178.4 105.11 137.03 127.12 137.03 127.12 176.53"/><path class="cls-7" d="M291.08,110.3c0,28.73-6.65,52-14.86,52s-14.86-23.3-14.86-52,6.65-52,14.86-52S291.08,81.56,291.08,110.3Z"/><path class="cls-9" d="M283,110.3c0,16.68-3.86,30.21-8.63,30.21s-8.63-13.53-8.63-30.21,3.86-30.22,8.63-30.22S283,93.61,283,110.3Z"/><path class="cls-2" d="M254.46,8.25a13.31,13.31,0,0,0-3.94.58,11.24,11.24,0,0,0-21.05,1.35,8.16,8.16,0,0,0-2.9-.53,7.66,7.66,0,0,0-7.85,7.46h46.8C265.52,12.22,260.57,8.25,254.46,8.25Z"/><path class="cls-2" d="M189.16,24.86a8.21,8.21,0,0,0-2.41.35,6.88,6.88,0,0,0-12.89.83,5,5,0,0,0-1.78-.33,4.69,4.69,0,0,0-4.8,4.57h28.65C195.93,27.29,192.9,24.86,189.16,24.86Z"/><polygon class="cls-10" points="277.39 107.73 275.81 104.05 273.51 109.39 271.22 104.05 269.64 107.73 271.93 113.07 269.64 118.41 271.22 122.08 273.51 116.74 275.81 122.08 277.39 118.41 275.09 113.07 277.39 107.73"/><path class="cls-7" d="M258.13,126.67l-5,1.26.67,1.25c-9.35,7.64-13.65,18.85-13.65,18.85l2.83,3.74s2.59-13.56,11.5-21.29l.86,1.61Z"/><path class="cls-7" d="M257.78,105.55l-2.67-5.5-.9,1.6c-8.8-8-11.13-21.63-11.13-21.63l-2.92,3.7s4.09,11.35,13.33,19.22l-.7,1.25Z"/><path class="cls-10" d="M273.51,111.63s-28.89-10.26-67.68,9.51-27.78,38-141.92,26l-28.35,30.7s145.32,13.8,172-25.7,62.06-37.1,65.93-35.43S273.51,111.63,273.51,111.63Z"/><path class="cls-11" d="M69.19,119.1l1.33-1.21a2.79,2.79,0,0,1,1.66-.11,12.21,12.21,0,0,1,1.87.26.7.7,0,0,1,.2.51,1.29,1.29,0,0,1-.19.63.8.8,0,0,1,0,.76.69.69,0,0,1-.18.74.56.56,0,0,1-.12.62,5.1,5.1,0,0,0-.9.18,16.19,16.19,0,0,1-3.37,0S68.59,121,69.19,119.1Z"/><path class="cls-12" d="M71.41,119.28a4.13,4.13,0,0,1-.52.88c-.2.15,1.24,1.14,1.24,1.14S72.27,119.7,71.41,119.28Z"/><path class="cls-13" d="M73.84,118s-2,.11-2,.43a.47.47,0,0,0,.17.44l-.79.41s-.36.57.36.8c0,0-.4.49.33.63,0,0-.12.44.2.57a6.79,6.79,0,0,0,1.58,0s.26-.14.13-.62a.66.66,0,0,0,.18-.74,1.1,1.1,0,0,0,.13-.94.93.93,0,0,0-.11-1Z"/><path class="cls-11" d="M70.58,117.88A6.61,6.61,0,0,1,72.35,119c.12.14.21.29.14.45s-.42.26-1,.05a4.83,4.83,0,0,0-1.34-.23S69.69,118.91,70.58,117.88Z"/><path class="cls-11" d="M74.15,119a17.32,17.32,0,0,0-2.31,0c-.19.1-.14-.68,0-.75A15,15,0,0,1,74,118,.66.66,0,0,1,74.15,119Z"/><path class="cls-11" d="M73.6,117.93s3.45.25,3.45.66-.8.65-3.45.35S73.6,117.93,73.6,117.93Z"/><path class="cls-14" d="M55.66,168.64s1.86,1.06,2.7,1.45,4.09.47,4.42.77.22,1.27-.32,1.38a26.4,26.4,0,0,1-5.79.23c-1.33-.29-3.78.26-4.33.08s-.24-3.12,0-3.78S55.66,168.64,55.66,168.64Z"/><path class="cls-15" d="M55.56,167.39l.1,1.25s-2.46.49-3.36.13l.17-1.25Z"/><path class="cls-14" d="M22.77,175.68s1.77,1.21,2.58,1.67,4,.79,4.34,1.12.12,1.28-.43,1.34a25.86,25.86,0,0,1-5.79-.23c-1.3-.4-3.79,0-4.32-.26s0-3.14.27-3.78S22.77,175.68,22.77,175.68Z"/><path class="cls-15" d="M23,174.49l-.24,1.19s-2.49.29-3.21-.13l.27-1.24Z"/><path class="cls-14" d="M43.26,137.6c-.24.8-.85,2.5-1.51,4.29l-.45,1.19c-.89,2.41-1.74,4.62-1.74,4.62-1.3,3-4.33,9.27-5.8,10.37-2,1.5-10.75,17.22-10.75,17.22l-4-.47s4.29-11.75,6.08-14.35c2-2.91,5.13-6.7,5.47-9.92.21-2,1.46-8.31,1.46-8.31s1.46-7.05,4.64-11.65C37.5,129.44,43.26,137.6,43.26,137.6Z"/><path class="cls-14" d="M47.48,136.89s11,8.21,12.23,9.9.48,4.38.29,5.2-3.68,14.37-3.77,15.79c0,0-3.39.84-4.26-.27,0,0,1.18-12.86,2-15.51s-3-4.41-5.11-5.37-13-6.2-12.86-8.32c.13-1.47.33-2.85.33-2.85S38.43,133.73,47.48,136.89Z"/><path class="cls-14" d="M47.59,116s7.14,1.35,10.46,1.76c1,.13,10.85.88,11.25.94s.1,3.24.1,3.24-11-.73-11.62-.68-10.84-.65-11.78-1.33-1.62-1.8-1-2.89A2.33,2.33,0,0,1,47.59,116Z"/><path class="cls-16" d="M47.24,115a24.43,24.43,0,0,1,1.24,5.66c0,2.06-1.92,8.25-2,9.4a17.82,17.82,0,0,0,1,6.88l-11.35,2.18a69.22,69.22,0,0,1-.27-7.18c0-3.91,1.19-7.13,1.47-9.37a10.81,10.81,0,0,1,7.22-9.35Z"/><path class="cls-11" d="M52.45,106s1,1.9.52,2.19.49,2.11.61,2.42-.76.52-.94.72S51.89,114,51.17,114a10.93,10.93,0,0,1-4.88-2c-.88-.93-1.61-5.1-1-6.86S50.65,102.71,52.45,106Z"/><path class="cls-11" d="M49,113.52l-.21.5c-.06.12-.12.27-.18.42s-.11.25-.16.38a12,12,0,0,0-.76,2.32c-.1.93-2.71-3.94-2.71-3.94a43.59,43.59,0,0,0,2.08-6C47.91,103.91,49,113.52,49,113.52Z"/><path class="cls-17" d="M52.66,106.44a2.92,2.92,0,0,0-.85-3.57c-1.9-1.52-5.41,1.15-5.8,1.25s-2.58.24-1.51,4.19c1,3.57,1.13,3.29,1.13,3.29a7.9,7.9,0,0,1,1.12-2,3.94,3.94,0,0,1,2-.35s-.67-1.78.38-2S51.6,106.05,52.66,106.44Z"/><path class="cls-11" d="M47.68,108.2c-.09-.24-.39-1.29-1.29-.68s.56,2.6.71,2.62S48.46,110.25,47.68,108.2Z"/><path class="cls-18" d="M45.16,112.76A38.82,38.82,0,0,0,48,116.57l-.33,1.86-3.12-5.26Z"/><path class="cls-19" d="M49,113.52l-.21.5c-.06.12-.12.27-.18.42a6.62,6.62,0,0,1-2.17-2.26A17.7,17.7,0,0,0,49,113.52Z"/><path class="cls-20" d="M48,116.68a6.13,6.13,0,0,1,.23,1.69c0,.18-.52-.05-.52-.05Z"/><path class="cls-21" d="M47.48,136.89s-.32-1-.39-1.24L36,137.71l.11,1.36S44.22,137.61,47.48,136.89Z"/><path class="cls-22" d="M28.55,144l-4.63-.58a.86.86,0,0,1-.75-1l.37-2.92a.84.84,0,0,1,.95-.74l4.63.57a.86.86,0,0,1,.75,1l-.37,2.92A.86.86,0,0,1,28.55,144Zm-4.13-4.63a.28.28,0,0,0-.31.25l-.37,2.91a.3.3,0,0,0,.25.32l4.63.57a.28.28,0,0,0,.31-.24l.37-2.92a.29.29,0,0,0-.25-.31Z"/><rect class="cls-17" x="17.73" y="141.39" width="16.29" height="10.48" transform="translate(18.28 -2.07) rotate(7.08)"/><rect class="cls-23" x="18.09" y="141.41" width="16.29" height="4.65" transform="translate(17.92 -2.14) rotate(7.08)"/><rect class="cls-22" x="24.92" y="144.95" width="2.25" height="0.64" transform="translate(18.1 -2.1) rotate(7.08)"/><path class="cls-24" d="M24.49,139.37a1.94,1.94,0,0,1,0-.59s.14-.34.23-.58a1.83,1.83,0,0,0,.06-.19,3.3,3.3,0,0,1,.3-1c.23-.42,1.18-1.85,1.18-1.85l1.36.59,1.27.17a21.38,21.38,0,0,1,0,3.35.61.61,0,0,1-.05.12,4.27,4.27,0,0,1-.56.69c0,.07-.49.66-.72.67a.74.74,0,0,1-.65-.28,1.79,1.79,0,0,1-.92-.27,1,1,0,0,1-.85-.42S24.61,139.69,24.49,139.37Z"/><path class="cls-25" d="M44,118.2s-6.53,5.07-8.87,7.87c-.74.88-5.22,9.6-5.51,9.93s-3.61-.71-3.61-.71,5.31-10.91,5.64-11.55,9.79-9.44,11-9.9,1.33.15,2,1.34A2.55,2.55,0,0,1,44,118.2Z"/><path class="cls-25" d="M47.65,122.1c-.25.69-.48,1.38-.7,2.08h0c-.48,1.53-.89,3.08-1.23,4.59-.13.53-.24,1.07-.35,1.59a30.94,30.94,0,0,1-4.63,10.87s-5-.4-6.21-1.23a90.17,90.17,0,0,1,1.94-14.17c.12-.54.25-1.08.39-1.61h0c1.48-5.6,3.87-10.65,7.69-11C44.62,113.26,49,118.51,47.65,122.1Z"/><path class="cls-25" d="M36.35,126.32a28.65,28.65,0,0,1-4.88,12.75c-.54.77,6.06,1.77,6.06,1.77Z"/><path class="cls-26" d="M41.39,120.27c-1.52,1.64-4.92,5.56-4.92,5.56.12-.54.25-1.08.39-1.61h0C38.06,123,41.34,120.31,41.39,120.27Z"/><path class="cls-20" d="M48.22,118.34s-.67,4.51-4.56,4.82c-3.48.27-8.53,2-10.16,3.36l-2,1.77.49-2.35s1.46-3.71,11.66-3.24c0,0,3.13.58,4.15-4.85C47.77,117.85,48.28,118.11,48.22,118.34Z"/><path class="cls-11" d="M236.36,71.7a9.48,9.48,0,0,1-1.23.58c-.46.15,0-1.58,0-1.58Z"/><path class="cls-11" d="M234.83,70.39s.11-1.34.14-1.55a3.16,3.16,0,0,1,.86-1.1,3.69,3.69,0,0,1,1.43-.85.54.54,0,0,1,.43.21,1.08,1.08,0,0,1,.25.5.67.67,0,0,1,.41.51.59.59,0,0,1,.32.57s.33.16.28.46a4.55,4.55,0,0,0-.46.64,13.49,13.49,0,0,1-2.13,1.92S235.54,71.9,234.83,70.39Z"/><path class="cls-12" d="M236.33,69.21a3.37,3.37,0,0,1,.18.85c0,.21,1.49.18,1.49.18S237.12,69,236.33,69.21Z"/><path class="cls-13" d="M237.13,67s-1.16,1.21-1,1.42a.41.41,0,0,0,.36.18l-.26.72s.1.56.69.29c0,0,0,.54.57.21,0,0,.19.34.46.23a5.1,5.1,0,0,0,1-.91s.09-.27-.27-.47a.59.59,0,0,0-.32-.57.65.65,0,0,0-.4-.52s-.1-.71-.7-.69Z"/><path class="cls-11" d="M235,68.8a5.68,5.68,0,0,1,1.77-.31c.15,0,.3.05.35.2s-.11.41-.58.59a4.3,4.3,0,0,0-1,.64S235,70,235,68.8Z"/><path class="cls-11" d="M220.65,70.37a46.73,46.73,0,0,0,6.67,4.28c.83.37,7.22-4.16,7.51-4.26s1,1.59,1,1.59-7.76,6.77-8.31,6.65-8.59-4.61-9.2-5.42a2,2,0,0,1-.11-2.66A2,2,0,0,1,220.65,70.37Z"/><polygon class="cls-25" points="222.85 76.41 224.22 72.64 222.26 71.03 221.02 75.41 222.85 76.41"/><polygon class="cls-11" points="196.47 96.69 195.62 96.18 194.48 98.42 195.3 98.92 196.47 96.69"/><polygon class="cls-11" points="234.31 116.14 234.78 116.98 236.8 115.65 236.35 114.83 234.31 116.14"/><path class="cls-6" d="M220.23,94c-.36.33-.94,1-1.59,1.68l-.23.26c-.19.21-.39.43-.58.66s-.19.2-.28.31c-1.23,1.41-2.37,2.76-2.37,2.76s-5.34,5.2-7.05,4.72c-3.72-1-13.37-5.34-13.37-5.34l1.86-3.24s3.6,1.6,6,2.32c2.72.82,1.89.7,4.42,1.34,1.55.39,4-5.88,4-5.93,1-2.42,2.4-5.52,3.45-6.31C215.38,86.52,220.23,94,220.23,94Z"/><path class="cls-6" d="M231,101.23c-.19-1.26-2.26-4.53-3.72-6.48h0c-2.3-3.11-3.84-5.57-3.84-5.57s-10.48,1-10.27,2c.39,2,5,4.39,5.87,5.12l2.22,1.39s2,1.34,3.35,2.53c1.85,1.59,1.52,2.16,2.69,4.55,1,2.13,6.19,12.11,6.19,12.11l3.12-1.83S231.32,103.19,231,101.23Z"/><path class="cls-25" d="M222.44,80.67c.08,1,1,8.51,1,8.51l-11.81,2.23s1.83-4,1.51-7.41a19.57,19.57,0,0,1-.06-2.74c0-.85.1-1.65.18-2.4.13-1.18.27-2.22.28-3.08A9.37,9.37,0,0,1,218.92,67l2.48,1.28a21.16,21.16,0,0,1,1.6,4.77C223.2,74.87,222.36,79.68,222.44,80.67Z"/><path class="cls-11" d="M225.08,60.14s1.06,1.55.65,1.85.62,1.77.75,2-.61.53-.75.72-.4,2.31-1,2.44a9.35,9.35,0,0,1-4.39-1.26c-.85-.71-1.87-4.24-1.52-5.82S223.21,57.45,225.08,60.14Z"/><path class="cls-11" d="M222.79,66.93s-.06.17-.14.44q-.06.18-.12.39c0,.11-.07.22-.1.34a10.46,10.46,0,0,0-.44,2.07c0,.81-3.07-3.13-3.07-3.13a12.8,12.8,0,0,0,1.6-5.41C220.77,58.71,222.79,66.93,222.79,66.93Z"/><path class="cls-27" d="M225.29,60.48s0-1.63-.85-2.2c-2.22-1.42-4.64.7-5,.82s-2.12,1.25-1,3.75c.85,2,1.35,2.3,1.35,2.3a6.73,6.73,0,0,1,.82-1.68,5.94,5.94,0,0,1,1.39-.83s-.18-1,.36-1.19C223.21,61.07,224.34,60.24,225.29,60.48Z"/><path class="cls-11" d="M221.16,62.46c-.1-.2-.46-1.08-1.18-.46s.73,2.18.86,2.19S222,64.16,221.16,62.46Z"/><path class="cls-24" d="M198.44,87.24a1.49,1.49,0,0,1,.11-.5l.3-.45.08-.15a3,3,0,0,1,.43-.84c.27-.33,1.32-1.38,1.32-1.38l1.06.74,1.06.37a18.33,18.33,0,0,1-.56,2.85l-.06.09a4.11,4.11,0,0,1-.6.5c-.05,0-.53.47-.72.44a.67.67,0,0,1-.51-.35,1.49,1.49,0,0,1-.73-.39.93.93,0,0,1-.66-.5S198.48,87.53,198.44,87.24Z"/><path class="cls-19" d="M222.79,66.93s-.06.17-.14.44q-.06.18-.12.39A5.63,5.63,0,0,1,220.45,66,16.14,16.14,0,0,0,222.79,66.93Z"/><path class="cls-28" d="M195.61,96.18s-.59,1.2-.82,1.71,0,.91-.35.81a5,5,0,0,0-2.33.19c-.52.29-3.69,2.37-4.31,1.79s.48-2,2.23-3.72,1.37-2.25,2.88-3C193.38,93.68,195.61,96.18,195.61,96.18Z"/><path class="cls-28" d="M234.71,116.84l1.56-1c.46-.3.45-.78.71-.51a4.84,4.84,0,0,0,2.05,1c.58,0,4.3-.11,4.52.7s-1.4,1.4-3.76,2-2.3,1.2-4,1.09C235.31,120.07,234.71,116.84,234.71,116.84Z"/><path class="cls-27" d="M225.29,60.48s.89-1.17,0-3.32c0,0-.32.93-2.37.63Z"/><path class="cls-29" d="M218.76,72.69A11.54,11.54,0,0,1,214.9,76l-.18-.83Z"/><path class="cls-11" d="M218.65,72.6s-6.43,3.19-8.91,5.16c-.77.62-6.64,7-6.94,7.27s-2.24-1-2.24-1,6.24-8.39,6.63-8.87,8.53-5.91,10.36-6.22c1.09-.18,2.13,0,2.48,1.07C220.52,71.6,218.65,72.6,218.65,72.6Z"/><path class="cls-25" d="M220.11,69.11s-1.19-3.1-6.66,1.58l1.27,4.43S221.69,72.21,220.11,69.11Z"/><path class="cls-30" d="M218.41,95.89c-.19.21-.39.43-.58.66s-.19.2-.28.31a36.41,36.41,0,0,1-3.21-3.92A38.12,38.12,0,0,0,218.41,95.89Z"/><path class="cls-31" d="M96.93,116.41l-6.94,7s-1,.76-.12,2.85c1,2.32,4.47,5.77,4.47,5.77s1.27-.31,1.38-.91-3.1-5.63-3-6.12a56.67,56.67,0,0,1,4.06-4.52S97.9,116.89,96.93,116.41Z"/><path class="cls-11" d="M101.49,113.68a11.6,11.6,0,0,0-.2,2.64c.13.72-3-1.95-3-1.95a13.89,13.89,0,0,0,.3-3.65C98.36,109.45,101.49,113.68,101.49,113.68Z"/><path class="cls-14" d="M107,147.44a7.79,7.79,0,0,1,1.24,3.36c.08,1.64,4,14,4,14l-3,1.17s-3.07-7.76-3.76-9.74c-.56-1.59-.57-2.71-1.68-4.68a10.88,10.88,0,0,0-1.68-2.05Z"/><path class="cls-14" d="M92.79,148.53a18.52,18.52,0,0,1-2.34,2.19c-1.24,1-12.25,8.43-12.4,8.54l-2.22-2.4S83,152.79,84,150.92s3.27-2.88,4-3.72a3.27,3.27,0,0,0,.87-1.5Z"/><path class="cls-14" d="M102.19,138.31s4,6.6,4.94,9.41l-4.35,2.51s-3.88-4-5.2-5.74S98.55,133.41,102.19,138.31Z"/><path class="cls-14" d="M100.89,137.93s-5.1,8.84-8.66,11.2a19.37,19.37,0,0,1-3.67-2.66s2.65-7.9,3.13-9.72S100.89,137.93,100.89,137.93Z"/><path class="cls-31" d="M98.23,114.35s3,1.61,3.15,1.68,2.31,4,1.9,7.27-1.47,5.1-1.89,8.74a12.82,12.82,0,0,0,.77,5.34c.13.34.31.86,0,.82l-10.64-1.48s2.51-7.84,2-11.92C93.05,121.46,95.73,116.11,98.23,114.35Z"/><path class="cls-32" d="M112.55,165.54A8.41,8.41,0,0,0,114,166c1,.2,3-.79,3.79-.28s.74,1.46-1.32,2.08-5.33,1.85-5.64,1.62a6,6,0,0,1-.57-2.93C110.31,165.68,112.55,165.54,112.55,165.54Z"/><polygon class="cls-33" points="112.19 164.83 112.55 165.54 110.22 166.46 110.16 165.73 112.19 164.83"/><path class="cls-32" d="M77.61,159.78a7.88,7.88,0,0,0,.08,1.46c.14,1,1.78,2.59,1.56,3.47s-1.12,1.2-2.4-.52-3.57-4.38-3.45-4.75A6,6,0,0,1,76,157.9C76.72,157.72,77.61,159.78,77.61,159.78Z"/><polygon class="cls-34" points="78.16 159.2 77.61 159.78 75.95 157.91 76.62 157.59 78.16 159.2"/><path class="cls-11" d="M109.71,127.35a2.63,2.63,0,0,0,1-.74,1.58,1.58,0,0,1,1.73-.24c.42.26,1,.08,1.13.42s-.47.66-.46.95.17,1.68-.95,1.83-2-.44-2.56-.36S109.71,127.35,109.71,127.35Z"/><path class="cls-11" d="M103.63,107.25a8.37,8.37,0,0,1,.56,1.75c0,.43-.46.44-.23.89s.76,1.4.52,1.68-.69.13-.82.72-1,1.84-1.74,1.85-3-.9-3.19-1.47-1-3.75-1.29-4.36S102,106,103,106.55A1.64,1.64,0,0,1,103.63,107.25Z"/><path class="cls-31" d="M96.64,121.09s-.83-3.13,1-3.23c2.14-.11,2,2.51,2,2.51Z"/><path class="cls-11" d="M103.71,107.44s-.52-2.93-4.52-2-.84,5.85-.84,5.85Z"/><path class="cls-11" d="M100.11,109a.8.8,0,0,0-1.34-.28c-.64.53.17,2.27.82,2.22S100.45,109.89,100.11,109Z"/><path class="cls-25" d="M103.58,107a4.82,4.82,0,0,1-2.85.94c-1.71,0-2.4,0-3.15,1.71,0,0-2.32-3.84,2.29-4.71C99.87,105,103.46,103.45,103.58,107Z"/><path class="cls-31" d="M99.64,120.37l1.25,7.35s.38.55,2.45.35,6.48-.8,6.48-.8a16.16,16.16,0,0,1,0,1.94c0,.25-9,2-10.6,1.06s-2.56-9.18-2.56-9.18Z"/><path class="cls-35" d="M153.48,98.39s-2.36-1.67-4,.51,1.16,6.36-.22,7.6-7,.55-6.31,4.12a3.12,3.12,0,0,1,3.47-2c2.57.47,5.81-.44,5.27-3.88s1.22-2.55,1.38-3.56S153.48,98.39,153.48,98.39Z"/><path class="cls-36" d="M153.25,98.39s-.84.78-.38,2.91C152.87,101.3,151.44,99.35,153.25,98.39Z"/><path class="cls-37" d="M170.5,120c.2,0,1.1-.14,1.4-.16a2.07,2.07,0,0,0,.76-.21c.09-.06.69-.08,1.23-.17s.78-.26.78-.35-.89-.12-.89-.12-.77.07-.77,0,.71-.28.8-.3a4.62,4.62,0,0,0,1.49-.71.34.34,0,0,0,0-.48s.23-.21.22-.39-.25-.24-.25-.24a.28.28,0,0,0-.14-.31,5.86,5.86,0,0,0-1.52.41,3.34,3.34,0,0,1-.86.28c-.37,0-.13-.32-.13-.32.51-.6.73-.76.69-1.33,0-.25-.53.4-.63.52s-.8.52-.92.78-1,.81-1.24,1.08a.73.73,0,0,1-.41.19Z"/><polygon class="cls-37" points="147.02 152.02 146.59 152.45 145.08 150.97 145.5 150.54 147.02 152.02"/><path class="cls-31" d="M145.07,150.92s1,1,1.33,1.21.79.1.78.46-.54,2.09-.25,2.78,1.4,2.6.54,3.42-4.81-5-5.41-5.41S145.07,150.92,145.07,150.92Z"/><polygon class="cls-37" points="175.46 151.04 175.65 151.62 173.68 152.26 173.44 151.71 175.46 151.04"/><path class="cls-38" d="M160.17,138.58s-2.24,4.49-3,5.24-9.89,8.53-9.89,8.53l-2.67-2.14a56.73,56.73,0,0,0,4.75-5.58,17.84,17.84,0,0,0,2.47-3.46,12.19,12.19,0,0,0,.94-2.85C152.79,138.07,160.17,138.58,160.17,138.58Z"/><path class="cls-38" d="M154.08,127.1s-.4,5.26-.56,7a20.24,20.24,0,0,1-.8,4.19l6.83,1.27s2.46-3.82,2.2-4.82S154.08,127.1,154.08,127.1Z"/><path class="cls-39" d="M158.12,113.66s-5,5.63-4.7,6.27c.47.89,4.92,4,4.92,4L157,125.36s-8.67-3.68-7.53-6.24,5.28-8.07,5.28-8.07Z"/><path class="cls-38" d="M174.44,141.89a19.29,19.29,0,0,0-1.61-5.74c-.84-1.51-5.72-6.54-5.72-6.54a29.6,29.6,0,0,0-2.59-2.67,1.82,1.82,0,0,1-.42-1.26S154,125.64,154,127a9,9,0,0,0,1.39,5c1.56,2.08,7.5,3.83,7.5,3.83a52.79,52.79,0,0,1,5.57,3.3,7.76,7.76,0,0,1,2.11,3.42A97.16,97.16,0,0,1,172.8,152l4-1.52A87.72,87.72,0,0,1,174.44,141.89Z"/><path class="cls-37" d="M155,104.32s.67,2.33.23,3.19,3.8,1.17,3.8,1.17-.86-1.94-.46-2.91C158.9,105,155,104.32,155,104.32Z"/><path class="cls-37" d="M158.86,97.91a4.75,4.75,0,0,1,1.06,3.12,9.61,9.61,0,0,0,1.2,1.7c.35.23-.61.61-.66.86a4.64,4.64,0,0,1-.51,2.14c-.53.81-4.46-.19-4.91-1.21s-4.37-5.37-.64-6.56S158.86,97.91,158.86,97.91Z"/><path class="cls-39" d="M155.07,107.46s-.39,1.44-.91,3a11.7,11.7,0,0,0-.47,6.43c.53,3.07,1.31,6.87.13,10.15,0,0,6.81.49,10.55-.42,0,0,.52-3.71,0-5.31-1.5-4.9.32-4.24-.83-6.46s-3.7-5.2-4.16-6Z"/><path class="cls-39" d="M170.09,118.13l.19.89.05.23.29,1.34s-8.55,3.13-10.35,1a80,80,0,0,1-5.19-8.12l1.82-.9.21-.1,1.78-.88s3.17,7.14,3.89,7.11C163.79,118.65,170.09,118.13,170.09,118.13Z"/><path class="cls-39" d="M159.41,108.8a4.58,4.58,0,0,1-.07-1.33l-4.42-1.09.13,1.15A21.13,21.13,0,0,0,159.41,108.8Z"/><path class="cls-39" d="M159.54,113l-1.67.85-.21.11-1.77.89c-2.19-2.73-.52-4.1-.07-4.39l.09-.06h0l.11,0C158.64,109.43,159.54,113,159.54,113Z"/><path class="cls-31" d="M173.57,152.26s1.36-.46,1.69-.62.47-.65.78-.48,1.59,1.46,2.34,1.52,3,0,3.28,1.11-6.66,1.94-7.3,2.28S173.57,152.26,173.57,152.26Z"/><path class="cls-35" d="M159.38,98.72s-.09,1.06-3.59,2.71c0,0-.72,1.75-1.34,2.12,0,0-3.23-2.83-1.41-5.14S158.36,96,159.38,98.72Z"/><path class="cls-37" d="M155.79,101.43c-.32-.42-1.18-.05-1,.63s1,1.25,1.21.88A1.35,1.35,0,0,0,155.79,101.43Z"/></g></g></svg>