<svg xmlns="http://www.w3.org/2000/svg" viewBox="0 0 287.98 195.75"><defs><style>.cls-1{fill:#ededeb;}.cls-2{fill:#599dad;}.cls-3{fill:#fcebd9;}.cls-4{fill:#fae2c9;}.cls-5{fill:#ee9849;}.cls-6{fill:#afcdfb;}.cls-7{fill:#9abcef;}.cls-8{fill:#f99746;}.cls-9{fill:#efcbab;}.cls-10{fill:#cca07f;}.cls-11{fill:#2c3a64;}.cls-12{fill:#ffb27d;}.cls-13{fill:#200660;}.cls-14{fill:#233862;}.cls-15{fill:#ed985f;}.cls-16{fill:#fcbc00;}.cls-17{fill:#ed7d2b;}.cls-18{fill:#c94c43;}.cls-19{fill:#b23b38;}.cls-20{fill:#6bb7bf;}.cls-21{fill:#86d1cd;}.cls-22{fill:#e58638;}.cls-23{fill:#a9453d;}.cls-24{fill:#ed975d;}.cls-25{fill:#e7f1fd;}.cls-26{fill:#1e3d70;}.cls-27{fill:#163560;}.cls-28{fill:#5aa9ad;}.cls-29{fill:#4a75cb;}.cls-30{fill:#2b478b;}.cls-31{fill:#f9ddbf;}.cls-32{fill:#eac8a9;}.cls-33{fill:#fcecdb;}</style></defs><g id="Layer_2" data-name="Layer 2"><g id="Layer_1-2" data-name="Layer 1"><path class="cls-1" d="M17.66,195.61s-35.38-38-6-79.12C37.76,80,68.17,82.5,90.48,97.31c9.51,6.3,36.91.77,60.22-36.36,31.81-50.64,142-19.92,121.94,58-9.72,37.7,29.6,39.07,9.56,76.76Z"/><path class="cls-2" d="M140.77,106.26c0-.07.4-8.34-3.59-10.24l.28-.27a8.15,8.15,0,0,1,4.66,5.4c.61,2.07.15,2.53.15,2.61Z"/><path class="cls-3" d="M120.44,25.28a25.14,25.14,0,0,0,5.76,16.06A21.11,21.11,0,0,1,131,54.74V61.8A8.18,8.18,0,0,0,139.19,70h13.06a8.18,8.18,0,0,0,8.15-8.15V54.73a21.19,21.19,0,0,1,4.87-13.42A25.28,25.28,0,0,0,141.18.41l-1,.19A25.3,25.3,0,0,0,120.44,25.28Z"/><path class="cls-4" d="M120.44,25.28a25.14,25.14,0,0,0,5.76,16.06A21.11,21.11,0,0,1,131,54.74V61.8A8.18,8.18,0,0,0,139.19,70h2a8.18,8.18,0,0,0,8.16-8.15V54.73a21.18,21.18,0,0,1,4.86-13.42A25.28,25.28,0,0,0,140.21.6,25.3,25.3,0,0,0,120.44,25.28Z"/><path class="cls-5" d="M140.11,47.56a15.45,15.45,0,0,0,2,1.48c1,.68,3,1.12,3.36,6.07,0,4.4,0,15.46,0,15.58h.5c0-.12,0-10.7,0-15.28h0s0-.11,0-.3c0-.48,0-.89,0-1.19,0-2.85,3.15-4.82,3.18-4.84h0c2-1.25,4.3-3.63,4.3-6.62a7.73,7.73,0,0,0-15.46,0A7.2,7.2,0,0,0,140.11,47.56Zm.33-.13a7.16,7.16,0,0,1-2-5,7.25,7.25,0,0,1,14.48,0A7.92,7.92,0,0,1,149,48.91a9.27,9.27,0,0,0-1.69,1.26A5.85,5.85,0,0,0,145.57,53a5.91,5.91,0,0,0-3.19-4.09A8.28,8.28,0,0,1,140.44,47.43Z"/><path class="cls-6" d="M152.2,70l0,.22-.36,2.75-.09.72h0l-.1.73-.35,2.75-.1.72h0l-.09.73L151,79c-.18,1.39-1.77,2.46-3.68,2.46h-4.29a5,5,0,0,1-1.3-.17h0a4.06,4.06,0,0,1-1-.42h0a3.29,3.29,0,0,1-.65-.5,2.29,2.29,0,0,1-.71-1.34L139.21,78l-.09-.67h0v0h0l-.1-.66-.36-2.54-.1-.67v0l-.1-.66L138.07,70Z"/><path class="cls-7" d="M150.49,70h-2.42l-9.61,2.76.1.66v0l.1.67c1.46-.41,5-1.41,13.51-3.89l0-.22Z"/><path class="cls-7" d="M139.12,77.26h0v0h0l.09.67c1.69-.48,5.17-1.47,12.41-3.57l.1-.73h0l.09-.72L139,76.6Z"/><path class="cls-7" d="M140.73,80.85h0a4.06,4.06,0,0,0,1,.42h0l9.33-2.69.09-.73h0l.1-.72-11.19,3.22A3.29,3.29,0,0,0,140.73,80.85Z"/><path class="cls-2" d="M130.34,89.9s-.45,4.25,1.77,6,6.3.49,6.3.49.45-4.25-1.77-6.06S130.34,89.9,130.34,89.9Z"/><path class="cls-2" d="M140.09,121.76a48.08,48.08,0,0,1,2.16-21,39.37,39.37,0,0,0,1.57-19.34h2.6c.07.38.25,9-2.52,20.93-2.5,10.69,2.16,19.4,1.17,19.4Z"/><path class="cls-2" d="M145.55,93s1.26-7.18,4.6-8h0a6.19,6.19,0,0,0-4.45,3.26c-.79,1.48-.52,1.9-.53,2Z"/><rect class="cls-8" x="42.36" y="145.98" width="39.43" height="4.92" rx="2.46"/><path class="cls-9" d="M51.91,150.9l-.47,2.88-6.78,41.68a.33.33,0,0,1-.35.26c-.35,0-.62-.24-.58-.52l5.37-42.69.21-1.61Z"/><path class="cls-10" d="M51.91,150.9l-.47,2.88c-.32-1.15-2.34-1.27-2.34-1.27l.21-1.61Z"/><path class="cls-9" d="M79.83,195.72a.33.33,0,0,1-.35-.26L72.7,153.78l-.29-1.8-.18-1.08h2.6l.21,1.61.16,1.27,5.22,41.42A.53.53,0,0,1,79.83,195.72Z"/><path class="cls-10" d="M75.2,153.78c-.67-1.37-2.79-1.79-2.79-1.79h0l-.18-1.08h2.6l.21,1.61Z"/><path class="cls-11" d="M68.53,49.17c0-.24-.19-2.79-4.08-2.93,0,0,1.91.23,2.24,1.07,0,0-1.3-1-2.36-.7s-1.69,2.19-1.69,2.8.58,2.58,1.25,2.75a2.06,2.06,0,0,0,.82,0,7.49,7.49,0,0,0-.52.94c-1.56,3.18,0,6.3,1.36,5.95.84-.22,1.08,1.22,1.08,1.22l8.19-6.63S71.81,47.42,68.53,49.17Z"/><path class="cls-12" d="M88.62,85.69s1.63-.32,2,0,2.13,2.1,1.75,2.69-2.18-.49-2.56-.59-1.42-.51-1.42-.51Z"/><path class="cls-13" d="M71.38,143.06l-1.74.65s-7.55-10.48-8.49-19.7a14.19,14.19,0,0,1,.25-4.72s-.07-.42-.2-1.16c-.06-.35-.13-.77-.22-1.25-.24-1.41-.58-3.33-1-5.53-.89-5-2-11.49-2.93-16.24l.47-.15,5.07-1.63L63.67,90l3.77-1s.85,1.65,1.6,9.45c.14,1,.27,2.15.36,3.37A66.69,66.69,0,0,1,69,115.48c-.17,1.35-.39,2.75-.66,4.19a18.81,18.81,0,0,0-.15,4.14C68.61,131.35,71.38,143.06,71.38,143.06Z"/><path class="cls-14" d="M69.4,101.82l-8.2,16.31c-.06-.35-.13-.77-.22-1.25-.24-1.41-.58-3.33-1-5.53-.89-5-2-11.49-2.93-16.24l.47-.15,5.07-1.63L63.67,90l3.77-1s.85,1.65,1.6,9.45C69.18,99.47,69.31,100.6,69.4,101.82Z"/><path class="cls-13" d="M65.79,91.1l-.19-1.63c-3.18.84-11.67-2.36-11.67-2.36s-3.09,2.71-2.68,9.2c.2,3.17.56,16.63.93,20.62.14,1.44.26,2.47.31,2.88h0a.64.64,0,0,1-.09.36A17.7,17.7,0,0,0,51,123.09c-3.7,9.85.57,22,.57,22l1.1-.45s2.43-13.5,4.4-19.47a12.31,12.31,0,0,1,1-2.28,25.68,25.68,0,0,0,2.38-6.34,156.41,156.41,0,0,0,3.2-16.81C63.71,99.74,65.79,91.1,65.79,91.1Z"/><path class="cls-12" d="M88.62,85.69l-.23,1.59H88.1c-.58,0-2-.12-3.58-.29-2.4-.24-5.24-.66-6.37-1.36-1.73-1.05-4.56-4.28-6.4-7.5a1.41,1.41,0,0,1-.13-.24,11.42,11.42,0,0,1-1.69-4.77A6.74,6.74,0,0,1,70.15,71a5.56,5.56,0,0,1,1-1.95,1,1,0,0,1,.18-.23,4.42,4.42,0,0,1,1.25-1.06c.32-.13.66,0,1,.4v0a6.16,6.16,0,0,1,.91,1.34.08.08,0,0,1,0,0c.07.12.13.25.21.4s0,.06.06.09l.43.95c1.62,3.52,3.34,8.87,4.78,10.46.62.69,3.45,2,5.7,3C87.31,85.16,88.62,85.69,88.62,85.69Z"/><path class="cls-12" d="M71.87,71.35a10,10,0,0,1-3.66.86c-5.47.3-6.71-4.49-6.94-7.68a4.69,4.69,0,0,1,1.88-.23c.39,0,.79.06,1.12.1.67-.35,1.87-2.05,2.57-4.89l.23.11,4,1.86s-.42,1.28-.73,2.51A5.11,5.11,0,0,0,70,66.14l.5.21h0A27,27,0,0,1,71.87,71.35Z"/><path class="cls-15" d="M71,61.48s-.42,1.28-.73,2.51c-2.3-.64-3-3.07-3.22-4.37Z"/><path class="cls-12" d="M71.51,62.84s-5.52-1.28-4.67-4.7.7-5.9,4.26-5.23S75,55.06,75,56.27,73,63.08,71.51,62.84Z"/><path class="cls-11" d="M75.32,54.33c-.59-1.24-1.29-1.18-1.72-1a4,4,0,0,0-5.14-.44,6.71,6.71,0,0,1-3.1,3.33s.85.87,3.3.85a4,4,0,0,0,2.2-.82A13.35,13.35,0,0,1,68,58.43c3.07-.59,5.14-4.15,5.35-4.52a4.38,4.38,0,0,1,.8,1.89c.06.94-.27,2.77.27,2.83C74.4,58.63,76.21,56.19,75.32,54.33Z"/><path class="cls-16" d="M75.22,71C75,70.35,73.7,68,73.7,68h0a10.9,10.9,0,0,0-3.18-1.69h0c0,.14,1,3.74.67,4.51s-7.36-1.74-7.74-2.32-.32-2.91-.31-3.86c0-.24,0-.38,0-.38a10.15,10.15,0,0,0-4.08.24,11.22,11.22,0,0,1,.79,2.64c0,.13,0,.27,0,.4a4.63,4.63,0,0,1,0,.83,1.55,1.55,0,0,1-.5,1,8.36,8.36,0,0,1-1,.88l-.86.62h0a70.13,70.13,0,0,1-.22,7.19,4.65,4.65,0,0,1-.7,2,4.92,4.92,0,0,1-.51.69c-1.54,1.73-4.28,5.18-3.68,7.32.05,2,17.11,4.68,16.74,2.46,0,0,2.57-12.35,3.95-15.34.05-.11.1-.21.14-.32a7,7,0,0,0,.22-3.47A3.14,3.14,0,0,1,75.22,71Z"/><path class="cls-17" d="M64.56,86.45c-3.37,0-6.21-3.53-8-6.32a4.65,4.65,0,0,0,.7-2,70.13,70.13,0,0,0,.22-7.19h0l.86-.62a8.36,8.36,0,0,0,1-.88C62.19,74.06,69.12,86.5,64.56,86.45Z"/><path class="cls-12" d="M77.28,88.28,76.82,90l-1.51-.27-.43-.09c-.74-.15-1.62-.35-2.58-.56h0c-1.65-.39-3.49-.87-5-1.39a13.36,13.36,0,0,1-2.69-1.2,1.18,1.18,0,0,1-.18-.13c-1.55-1.12-3.37-4.41-4.8-7.94-.19-.49-.38-1-.56-1.45a34.83,34.83,0,0,1-1.5-5,14.38,14.38,0,0,1-.36-2.38,5.06,5.06,0,0,1,0-.67c0-3.82,1.92-4.35,1.92-4.35l.13,0c.33,0,.67.17,1,.61a11.91,11.91,0,0,1,1.41,2.49c.75,1.69,1.54,3.89,2.27,6.08.41,1.2.81,2.39,1.2,3.5.23.67.45,1.3.66,1.88a18.23,18.23,0,0,0,1.11,2.57,6.24,6.24,0,0,0,1.62,1.46,58.46,58.46,0,0,0,5.21,3.24l2,1.12Z"/><path class="cls-16" d="M61.63,67.59a5,5,0,0,0-4.49,1.28c0-3.81,1.93-4.33,1.93-4.33C59.84,64.22,60.72,65.54,61.63,67.59Z"/><path class="cls-14" d="M58,146H49.25a4.8,4.8,0,0,1,.25-2.35c.44-1,1.12-1.41,1-2.59a3.17,3.17,0,0,0,2.73,1.05,10,10,0,0,0,1.52,2C55.28,144.47,57.84,144.32,58,146Z"/><path class="cls-14" d="M76.82,146H68.06a3.69,3.69,0,0,1,.25-2.35,1.7,1.7,0,0,0-.06-2,3.3,3.3,0,0,0,1.47.28,3,3,0,0,0,1.31-.46,32.25,32.25,0,0,0,2.49,2.63C74.1,144.47,76.65,144.32,76.82,146Z"/><path class="cls-18" d="M80,101.35l1.21.49L87,104.23a4.54,4.54,0,0,0,5.9-2.47l.57-1.39q.56-.36,1.14-.78c6.35-4.57,13.21-.13,13.21-.13a1.06,1.06,0,0,0,.09-.47,1.2,1.2,0,0,0-.28-.73c-4.27-3-10.37-3.32-13-3.32-.85,0-1.35,0-1.35,0l-.17-.07c1.09-3.67-.24-7.41-3.2-8.62a5.1,5.1,0,0,0-2-.39,6.51,6.51,0,0,0-3.67,1.21,8.64,8.64,0,0,0-2.72,3.09,1.4,1.4,0,0,0-1.67.82L77.8,96.09A4,4,0,0,0,80,101.35Zm8.43-10.9-.33-.14a1.11,1.11,0,0,0-.43-.09,1.17,1.17,0,0,0-1.09.73l-2.37-1a1.4,1.4,0,0,0-1.72.58l-.35-.14a8,8,0,0,1,2.75-3,5.53,5.53,0,0,1,3.62-.88,4.57,4.57,0,0,1,1.14.3c2.65,1.08,3.82,4.46,2.86,7.81l-.25-.11a1.4,1.4,0,0,0-.82-1.62l-2.37-1A1.16,1.16,0,0,0,88.43,90.45Z"/><path class="cls-19" d="M93.5,100.37q.56-.36,1.14-.78c6.35-4.57,13.21-.13,13.21-.13a1.06,1.06,0,0,0,.09-.47,13.19,13.19,0,0,0-9-2C93.69,97.81,92.74,98.54,93.5,100.37Z"/><path class="cls-19" d="M80,101.35l1.21.49c-1.81-1,.43-5.18,1.75-7.94s3.31-1.5,3.31-1.5a1.57,1.57,0,0,1,1.43-.88,1.09,1.09,0,0,1,.73-1.07l-.33-.14a1.11,1.11,0,0,0-.43-.09,1.17,1.17,0,0,0-1.09.73l-2.37-1a1.4,1.4,0,0,0-1.72.58l-.35-.14a8,8,0,0,1,2.75-3,5.53,5.53,0,0,1,3.62-.88,2.46,2.46,0,0,1-.57-.67,6.51,6.51,0,0,0-3.67,1.21,8.64,8.64,0,0,0-2.72,3.09,1.4,1.4,0,0,0-1.67.82L77.8,96.09A4,4,0,0,0,80,101.35Z"/><path class="cls-12" d="M82.73,89.91c-.85.36-2,1.6-3.93.84a29.73,29.73,0,0,0-3.49-1.06l-.43-.09.75-2.19.09,0a13.56,13.56,0,0,0,4.12.37c1.31-.31,3.49,1.26,3.49,1.26S83.57,89.57,82.73,89.91Z"/><path class="cls-6" d="M106.51,103.13a12.76,12.76,0,0,1,1.43-3.23,12.76,12.76,0,0,1,1.43,3.23,1.43,1.43,0,0,1-2.86,0Z"/><path class="cls-20" d="M132.17,74.13s-3.6-5.1-7.7-6.59c0,0,1.53,11.94-.71,12.09S123,66.2,123,66.2s-10.67-5.92-15-5.76c0,0,6.13,11.93,3.92,11.52s-9.16-12.52-9.16-12.52-11.14-2.75-13.33,3.82S90,73.33,91.62,73.84s12.35,1,12,2.38-7.72,3.17-11.68,1.68c0,0,3.81,11.24,9.68,11s7.88-3.72,11.51-3.79,6.22,1.06,4.35,1.93-7.94-.15-11,2.16-5.52,3.7-.16,5.13,13.43-.18,17.27-2.74c0,0,3.14-.25,5.6,14.23.95,5.58.22,13.87.22,13.87l2-.31a70.78,70.78,0,0,0-4.76-29.73S136.57,82.33,132.17,74.13Z"/><path class="cls-21" d="M164.69,95.55s-12-5-7.69-14.19c0,0,3.61-5.73,8-7.59,0,0-1,13,1.48,13.07s0-14.61,0-14.61,11.22-7,15.92-7.12c0,0-5.94,13.29-3.57,12.72S188,63.71,188,63.71s11.91-3.63,14.68,3.36,0,11-1.73,11.6S187.62,80.48,188.09,82s8.56,3,12.76,1.14c0,0-3.46,12.41-9.84,12.53s-8.77-3.57-12.71-3.43-6.67,1.51-4.6,2.34,8.6-.62,12.06,1.7,6.19,3.69.47,5.56-16.32,2.3-18.93-2Z"/><path class="cls-20" d="M197.38,70S167,83.73,164.69,95.55a24.07,24.07,0,0,1-1.77,11.31l.26,2.25s2.44-8,4.12-9.29C167.3,99.82,159.12,90.71,197.38,70Z"/><path class="cls-20" d="M162.92,106.86a20.94,20.94,0,0,0-.23,16.61l1.21-.48s-2.34-9.76-.35-15S162.92,106.86,162.92,106.86Z"/><path class="cls-20" d="M119,41c4.91,5.23,2.35,15.6,2.35,15.6S110.86,58.54,106,53.31s-2.36-15.59-2.36-15.59S114.11,35.81,119,41Z"/><path class="cls-21" d="M119,41c4.91,5.23,2.35,15.6,2.35,15.6L103.59,37.72S114.11,35.81,119,41Z"/><path class="cls-20" d="M175.51,57.63c-2.56,3-8.35,2.17-8.35,2.17s-1.64-5.61.93-8.58,8.35-2.17,8.35-2.17S178.07,54.66,175.51,57.63Z"/><path class="cls-21" d="M175.51,57.63c-2.56,3-8.35,2.17-8.35,2.17l9.28-10.75S178.07,54.66,175.51,57.63Z"/><polygon class="cls-16" points="190.87 108.09 190.87 108.14 189.71 125.97 185.4 192.19 104.82 192.19 100.08 126.88 98.77 108.88 98.71 108.09 190.87 108.09"/><path class="cls-22" d="M190.87,108.14,189.71,126a141.37,141.37,0,0,0-44.92-7.19c-27.75,0-44.71,8.1-44.71,8.1l-1.31-18Z"/><polygon class="cls-16" points="193.67 117.52 95.79 117.52 94.67 106.14 194.91 106.14 193.67 117.52"/><polygon class="cls-22" points="186.64 195.72 103.09 195.72 102.14 191.76 187.7 191.76 186.64 195.72"/><path class="cls-12" d="M145.61,194.2v-.69a42.51,42.51,0,0,1-4.14-5.3l-2.68-4.94-3.5.87,4.45,6.29Z"/><path class="cls-23" d="M126.07,103.6c.61-2.51-.27-3.68-1.07-4.31a3.77,3.77,0,0,0-1.26-1.84,4.5,4.5,0,0,0-2.45-.47,1.21,1.21,0,0,1,.52-.25,3.85,3.85,0,0,0-1.36.36c-5.83-2.25-6.75,6.34-6.63,8.34s.11,4.35-2.93,5.92c-5.79,3,1.93,14.31,1.93,14.31-.15-1.61,7.29-10.13,11.18-12.68a11.17,11.17,0,0,0,1.3-4,10.56,10.56,0,0,1-.79,3.66C126.28,111,126.54,107.06,126.07,103.6Z"/><path class="cls-12" d="M123.77,113.11a5.38,5.38,0,0,1-3.3.6,4.28,4.28,0,0,1-2.2-2.1c.57-.12.73-.9.72-4.25l.25,0,4.32.86s-.1,1.35-.1,2.63C123.46,112,123.52,113,123.77,113.11Z"/><path class="cls-24" d="M123.56,108.27s-.1,1.35-.1,2.63c-2.42-.06-3.69-2.27-4.22-3.49Z"/><path class="cls-13" d="M140.76,186.48l-2.29.07-2.47.08a48.91,48.91,0,0,1-8.93-16.58q-.1-.36-.24-.72c-1.75-5.12-5.39-11.54-7.31-17.36-.31-.93-.58-1.8-.83-2.63-.08-.26-.15-.52-.23-.78a62.11,62.11,0,0,1-2.2-11.58l13.86.11A257.86,257.86,0,0,0,140.76,186.48Z"/><path class="cls-25" d="M128.18,129.13c0,6.6,1,9.42,1,9.42a18.59,18.59,0,0,1-13,.8c-.08,0-5.83-1.34-5.83-1.34.12-.27,1.17-4.71,1.28-4.95,1.49-3.2,2.62-4.6,2.79-5.58a21,21,0,0,0,.18-5.53,44.41,44.41,0,0,0-1.71-8.67,44,44,0,0,0,5.72-2,4.43,4.43,0,0,0,3.08,1.14c1.4,0,1.86-.63,1.79-1.29,1.49.84,2.69,1.62,2.69,1.62,1.27,2.21,3.85,4.36,4,7.74C130.23,121.38,128.18,129,128.18,129.13Z"/><path class="cls-12" d="M124.37,109.48s-5.72.09-5.72-3.47-.74-5.94,2.9-6.15,4.36,1.14,4.65,2.33S125.85,109.36,124.37,109.48Z"/><path class="cls-23" d="M124.16,99.77s-1.57,4.18-4,4.79-3.44,0-3.44,0a6.82,6.82,0,0,0,2.22-4S123,97.78,124.16,99.77Z"/><path class="cls-23" d="M123.77,100.11a5,5,0,0,1,1.45,1.84c.29.9.41,2.77,1,2.71,0,0,1.18-2.84-.15-4.45S123.77,100.11,123.77,100.11Z"/><path class="cls-12" d="M120.09,193.34c-.2-1.07-.57-2.92-.57-2.92l.09-6.56h-4l1.49,6.28a6.32,6.32,0,0,1-.3,2.62s-.39,1.74,1.33,1.78S120.28,194.41,120.09,193.34Z"/><path class="cls-26" d="M116.81,192.76a11.76,11.76,0,0,0-.13,3s.5,0,1.75,0,1.82,0,1.82,0a12.38,12.38,0,0,0-.28-3S118.75,194.54,116.81,192.76Z"/><polygon class="cls-12" points="133.36 133.71 136.06 141.94 134.52 142.55 130.06 135.28 133.36 133.71"/><path class="cls-26" d="M147.64,195.72s-3.44.07-4,0-1-1.12-1.66-2.39a2.12,2.12,0,0,0-1.44-1l0,3.34h-.87l-.91-3.53a2.85,2.85,0,0,1,.26-2.77c.46,0,1.79.31,4.12,2.94a3.05,3.05,0,0,0,2.47,1.15l0,0C147.58,194.4,147.64,195.72,147.64,195.72Z"/><path class="cls-13" d="M134,134.51s-.42-1.07-1-2.43-1.95-14.56-2.88-16.53-4.1-3.23-4.1-3.23l-2.62-1.14s3.3,8.17,3.4,9.82.39,27,.39,27-.2,1.17,2,.68a7.36,7.36,0,0,0,2.82-1s-.81-5.94-1.3-11.78A6.68,6.68,0,0,0,134,134.51Z"/><path class="cls-26" d="M138.47,186.55l-2.47.08a48.91,48.91,0,0,1-8.93-16.58q-.1-.36-.24-.72c-1.75-5.12-5.39-11.54-7.31-17.36-.31-.93-.58-1.8-.83-2.63-.08-.26-.15-.52-.23-.78l2-1.54s6.13,9.91,8,19.25C130.17,174.37,136.77,184.13,138.47,186.55Z"/><path class="cls-13" d="M120.72,167.13c0,4.54-.2,15-.79,19.3h-2.19c-1.21,0-1.82,0-1.82,0-1.48-7.51-2.54-13.73-3.3-19.08-.63-4.4-1.19-8.16-1.62-11.41s-.74-6-.85-8.3c0-.37,0-.72,0-1.06s0-.68,0-1l12-1.17C121.93,152.34,120.7,164.5,120.72,167.13Z"/><path class="cls-26" d="M117.74,186.43c-1.21,0-1.82,0-1.82,0-1.48-7.51-2.54-13.73-3.3-19.08-.63-4.4-1.19-8.16-1.62-11.41s-.74-6-.85-8.3l4.39,2.58s-2.8,1-1.73,8.48S116.25,185.37,117.74,186.43Z"/><path class="cls-13" d="M118.3,147.54s-.84,3.05-3.76,2.66a35.28,35.28,0,0,1-7.06-2.14s1.25-3.94,2.8-9.11c1.87-6.26,4.2-14.34,5.29-19.43a28.93,28.93,0,0,0,.59-3.48l2.42-4.69s3.61,8.1,3.81,10.14S118.3,147.54,118.3,147.54Z"/><path class="cls-12" d="M115.39,121.19l3.2-9.84a48.66,48.66,0,0,0-6.06,2.22,14,14,0,0,0-2,5.4s-.83,9,1,12.34c0,0,5.83,1.17,15.16-2v-2.14s-10.2.53-12.29.78Z"/><path class="cls-26" d="M118.17,125.77c-.13,3.3-.9,9.72-7.84,13.15l0,0c1.87-6.26,4.2-14.34,5.29-19.43C116.84,121.42,118.25,124,118.17,125.77Z"/><path class="cls-13" d="M118.59,111.35s-5.93.42-7.35,3.59-1.88,13.74-.07,16.85a16.4,16.4,0,0,0,6.92-.11l.17,0s1.4-3.45.14-4.13c0,0-3.73.19-3.34-1S118.59,111.35,118.59,111.35Z"/><path class="cls-23" d="M133.43,128.45l-.18.56-9.71-3a.39.39,0,0,1-.07-.35.27.27,0,0,1,.24-.21Z"/><polygon class="cls-23" points="134.13 128.98 133.43 128.45 133.25 129.01 134.13 128.98"/><path class="cls-12" d="M135.67,141.71s2.47,1.36,2.79,2.4.1,3.21-.29,3.18-1-2.34-1.3-2.5-.78-.65-.78-.29.33,1,.17,1.1-.68-.9-1-1.1-.51-1.8-.85-2.23S135.67,141.71,135.67,141.71Z"/><path class="cls-12" d="M126.66,127.13s2.21-1.36,3.13-1.15,3.28,1.92,2.15,2.28-2.05,0-2.49.25-.75.76-2.79.76S126.66,127.13,126.66,127.13Z"/><path class="cls-24" d="M222.25,133s-2.81,1.6-3.59,1.6-3.87-.6-4.73-.16a10.13,10.13,0,0,0-2.71,2.78c-.53,1,2.11.58,3.36-.3a.77.77,0,0,1,.62-.13,6.21,6.21,0,0,0,2.64.15,45.58,45.58,0,0,1,5.46-.69Z"/><path class="cls-16" d="M243.61,111.29s-2.91,20.69-7.73,22.54c-2.37.92-12.88,3-16,3.2,0,0-.76-.62-.58-3.13,0,0,11-4.05,12.58-6.24,2.32-3.28-1.45-13.37,1.47-16.44S241.2,106.82,243.61,111.29Z"/><path class="cls-2" d="M242.63,154.88a36.89,36.89,0,0,1-2.84,4.07c-3.13,4-6.53,7.2-7.13,10.28a12.6,12.6,0,0,1-.55,2c-.24.7-.55,1.45-.9,2.21a67.87,67.87,0,0,1-5.3,9.05c-3.43,5.08-6.65,9.32-6.65,9.32l-5.91-.25c.24-.6,2.82-7.61,6.27-16.17,1.4-3.48,2.88-7.18,4.32-10.75l.57-1.42c.44-1.09.87-2.17,1.3-3.21,3.23-8,5.81-14.45,5.81-14.45s12.94-4.9,14.28-1.73C247,146.42,246.11,149,242.63,154.88Z"/><path class="cls-27" d="M219.08,190.7s-.3,4.88-1.25,5h-4.78l-6,0a1.93,1.93,0,0,1,1.78-1.73c1.74-.3,4.65-1.53,5.7-3.82S219.08,190.7,219.08,190.7Z"/><path class="cls-27" d="M225.52,177.25s4.11,2.64,3.71,3.5c0,.11-2.32,4.18-2.32,4.18L224,190.11a1.93,1.93,0,0,1-.65-2.4c.58-1.67.94-4.8-.56-6.84S225.52,177.25,225.52,177.25Z"/><path class="cls-20" d="M222.43,182.13s3.48.33,4.49-3.91c0,0-3.73-13.41-6-16.25-.1-.13-.08-.28.06-.44,1.74-1.95,21-5.92,23.51-9.84a12.16,12.16,0,0,0,1.63-3.75,8.88,8.88,0,0,0,.12-4L227,143.35s-16,10-17.82,16.77C208,164.15,222.43,182.13,222.43,182.13Z"/><path class="cls-28" d="M221,161.53c1.74-1.95,21-5.92,23.51-9.84a12.16,12.16,0,0,0,1.63-3.75v-2.43l-8.18-1.29s-2.32,7.14-9.18,9.81C222.3,156.54,221.08,161,221,161.53Z"/><path class="cls-12" d="M232.24,110c3.89,1,10.34-2.6,10.34-2.6a9.53,9.53,0,0,1-3.44-5.38c0-.19-.09-.38-.12-.57l-2-.43-3,2.67a23.59,23.59,0,0,0,.44,3c.06.33.13.69.22,1.07A9.06,9.06,0,0,0,232.24,110Z"/><path class="cls-16" d="M246.7,126.12c-.56,7.49.17,18.89-.46,20.87-.55,1.7-6.76.69-9.24.12-.92-.21-2-.51-3.18-.87-3.21-1-6.7-2.41-7.08-3.46l0-.12a.82.82,0,0,1,0-.44,7.81,7.81,0,0,0,.66-2.44c.06-1.49.05-3.23.11-5.11a4.72,4.72,0,0,1,0-.65v-.2c0-2.09.16-4.29.29-6.48.08-1.37.17-2.72.28-4a53.81,53.81,0,0,1,1.16-8.23,13.23,13.23,0,0,1,4.24-6.55l1.19-1a6.81,6.81,0,0,0,4.29-.57c1.53-.72,2.05-1.24,2.32-1C244.82,108.61,247.35,117,246.7,126.12Z"/><path class="cls-17" d="M233.82,146.24c-3.21-1-6.7-2.41-7.08-3.46l0-.12c0-.15,0-.29,0-.44a7.81,7.81,0,0,0,.66-2.44c.06-1.49.05-3.23.11-5.11a4.72,4.72,0,0,1,0-.65v-.2l13-16.51S249.19,135.45,233.82,146.24Z"/><path class="cls-24" d="M234.05,103.68a23.59,23.59,0,0,0,.44,3,7.88,7.88,0,0,0,4.65-4.67c0-.19-.09-.38-.12-.57l-2-.43Z"/><path class="cls-12" d="M233.66,105.35s6.32-1,5.61-5-.39-6.71-4.46-6.2-4.58,2.15-4.66,3.52S232,105.53,233.66,105.35Z"/><path class="cls-29" d="M224.29,137.86l-15.8.34-4.4-13.55a.3.3,0,0,0-.37-.19h0a.29.29,0,0,0-.19.37l4.57,14.08a.37.37,0,0,0,.36.25l15.85-.34Z"/><path class="cls-12" d="M224,139.59s-5.18,1.37-7.12,1.23-3.56-1.07-3.8-1.55-.76-1.34.56-1.18,3.13.44,3.19.18-1.08-.23-1.08-.23-.34-.5.09-.52,1.69-.35,2.16-.12.9,1.1,1.24,1.06,4.33-1.8,4.33-1.8Z"/><path class="cls-16" d="M242.33,112.14s-.61,20.89-5.2,23.26a106.2,106.2,0,0,1-15.55,4.94s-.82-.53-.91-3.05c0,0,10.5-5.23,11.81-7.59,2-3.51-2.91-13.13-.35-16.51S239.44,108,242.33,112.14Z"/><path class="cls-30" d="M239.14,102a3,3,0,0,0-.76-2.12s.29-1.35-.24-1.58-.65.92-.89.74a5.49,5.49,0,0,1-1.81-2.27c-.47-1.25-4.75.26-5.25.48s-2.1-.6-2.42-1.26a9.6,9.6,0,0,0,1.3-1.25c.4-.54,3.21-4.15,7.13-3.12s4.46,2.9,4.23,4.5S240.75,101.47,239.14,102Z"/><rect class="cls-8" x="228.96" y="152.88" width="31.96" height="8.36" rx="4.18"/><path class="cls-9" d="M234.93,161.24l-.47,2.21-6.78,32c0,.11-.17.2-.35.2-.35,0-.62-.19-.59-.4l5.38-32.79.2-1.24Z"/><path class="cls-10" d="M234.93,161.24l-.47,2.21c-.32-.88-2.34-1-2.34-1l.2-1.24Z"/><path class="cls-9" d="M262.85,195.67c-.18,0-.34-.09-.35-.2l-6.79-32-.29-1.38-.17-.83h2.6l.2,1.24.16,1,5.22,31.82C263.47,195.48,263.2,195.67,262.85,195.67Z"/><path class="cls-10" d="M258.21,163.45c-.66-1-2.79-1.38-2.79-1.38h0l-.17-.83h2.6l.2,1.24Z"/><path class="cls-31" d="M200.62,195.65a.54.54,0,0,1-.66-.39l-6.48-26.12-1.25-5-2.46-9.92L186,139.07l3.52-.23,2.07,10.23,3,14.72,1.5,7.42,4.85,23.94A.44.44,0,0,1,200.62,195.65Z"/><path class="cls-32" d="M191.61,149.07c0,.1-.05.15-.05.15a10.82,10.82,0,0,0-1.79,4.95L186,139.07l3.52-.23Z"/><path class="cls-31" d="M188.53,139.07l-6.21,25-1.25,5-6.48,26.12a.55.55,0,0,1-.66.39.43.43,0,0,1-.32-.5l4.85-23.94,1.5-7.42,5-24.95Z"/><path class="cls-32" d="M182.32,164.09l-1.25,5c-1.48.1-2.61,2.07-2.61,2.07l1.5-7.42,2.35-.23S182.32,163.76,182.32,164.09Z"/><path class="cls-31" d="M167.76,139.07l-6.21,25-1.25,5-6.49,26.12a.53.53,0,0,1-.65.39.42.42,0,0,1-.32-.5l4.84-23.94,1.51-7.42,5.05-24.95Z"/><path class="cls-32" d="M161.55,164.09l-1.25,5c-1.48.1-2.62,2.07-2.62,2.07l1.51-7.42,2.35-.23S161.55,163.76,161.55,164.09Z"/><polygon class="cls-31" points="183.63 167.85 153.72 167.85 164.31 128.73 193.48 128.73 183.63 167.85"/><polygon class="cls-33" points="182.74 167.85 152.83 167.85 163.42 128.73 192.59 128.73 182.74 167.85"/><path class="cls-3" d="M183.35,142.8a13.06,13.06,0,0,1-3.86,5.81,10.84,10.84,0,0,0-3.23,4.84l-.78,2.55a4.35,4.35,0,0,1-3.85,2.95h-4.72a2.11,2.11,0,0,1-2-2.95l.78-2.55a6.46,6.46,0,0,0-.27-4.85,7.7,7.7,0,0,1-.29-5.86c1.57-5,6.88-9.08,11.92-9.08a8.28,8.28,0,0,1,1.6.15l.33.07C182.74,134.79,184.68,138.44,183.35,142.8Z"/><path class="cls-4" d="M183.35,142.8a13.06,13.06,0,0,1-3.86,5.81,10.84,10.84,0,0,0-3.23,4.84l-.78,2.55a4.35,4.35,0,0,1-3.85,2.95h-.73a2.12,2.12,0,0,1-2.05-2.95l.79-2.55a6.41,6.41,0,0,0-.28-4.85,7.66,7.66,0,0,1-.28-5.86,13.64,13.64,0,0,1,9.85-8.86C182.74,134.79,184.68,138.44,183.35,142.8Z"/><path class="cls-5" d="M175.11,149a2,2,0,0,0-1.94-2.79,4.11,4.11,0,0,0-3.65,2.79,2.15,2.15,0,0,0,.82,2.39h0a1.75,1.75,0,0,1,.62,1.75c0,.11-.08.26-.13.44a.84.84,0,0,1,0,.1h0c-.5,1.66-1.68,5.48-1.7,5.53h.18c0-.05,1.25-4.05,1.73-5.63a3.2,3.2,0,0,1,1.88-2.2,7.43,7.43,0,0,0,.88-.54A3.8,3.8,0,0,0,175.11,149Zm-2.31,2.33a3.32,3.32,0,0,0-1.6,1.47,1.54,1.54,0,0,0-.32-1,2.32,2.32,0,0,0-.48-.46,2.08,2.08,0,0,1-.7-2.33,3.7,3.7,0,0,1,3.38-2.51,1.81,1.81,0,0,1,1.85,2.51,3.74,3.74,0,0,1-1.26,1.8A5,5,0,0,1,172.8,151.34Z"/><path class="cls-6" d="M171.61,159l0,.08-.44,1-.11.27h0l-.12.26-.43,1-.11.27h0l-.11.26-.06.15a1.81,1.81,0,0,1-1.61.89H167a1.58,1.58,0,0,1-.45-.06h0a1.35,1.35,0,0,1-.32-.15h0a.77.77,0,0,1-.18-.18.62.62,0,0,1-.11-.48l.06-.39,0-.24h0l0-.23.15-.92,0-.25h0l0-.24.16-1Z"/><path class="cls-7" d="M171,159h-.87l-3.78,1,0,.24h0l0,.25,5.32-1.41,0-.08Z"/><path class="cls-7" d="M166.07,161.59h0l0,.24,4.88-1.29.12-.26h0l.11-.27-5,1.34Z"/><path class="cls-7" d="M166.26,162.89h0a1.35,1.35,0,0,0,.32.15h0l3.67-1,.11-.26h0l.11-.27-4.4,1.17A.77.77,0,0,0,166.26,162.89Z"/><path class="cls-32" d="M182.07,161.6h-.21a.06.06,0,0,1-.06-.06.06.06,0,0,1,.06,0h.21a.06.06,0,0,1,.06,0A.06.06,0,0,1,182.07,161.6Zm-.8,0h-.6a.06.06,0,0,1-.06-.06.06.06,0,0,1,.06,0h.6a.06.06,0,0,1,.06,0A.06.06,0,0,1,181.27,161.6Zm-1.2,0h-.59a.05.05,0,0,1-.06-.06s0,0,.06,0h.59s.06,0,.06,0A.05.05,0,0,1,180.07,161.6Zm-1.19,0h-.6a.06.06,0,0,1-.06-.06.06.06,0,0,1,.06,0h.6a.06.06,0,0,1,.06,0A.06.06,0,0,1,178.88,161.6Zm-1.19,0h-.6a.06.06,0,0,1-.06-.06.06.06,0,0,1,.06,0h.6a.06.06,0,0,1,.06,0A.06.06,0,0,1,177.69,161.6Zm-1.19,0h-.6a.06.06,0,0,1-.06-.06.06.06,0,0,1,.06,0h.6a0,0,0,0,1,.05,0S176.53,161.6,176.5,161.6Zm-1.2,0h-.59a.05.05,0,0,1-.06-.06s0,0,.06,0h.59s.06,0,.06,0A.05.05,0,0,1,175.3,161.6Zm-1.19,0h-.6a.06.06,0,0,1-.06-.06.06.06,0,0,1,.06,0h.6a.06.06,0,0,1,.06,0A.06.06,0,0,1,174.11,161.6Zm-1.19,0h-.6a.06.06,0,0,1-.06-.06.06.06,0,0,1,.06,0h.6a.06.06,0,0,1,.06,0A.06.06,0,0,1,172.92,161.6Z"/><path class="cls-32" d="M180.39,133l0,0a0,0,0,0,1,0-.08l.42-.43a.06.06,0,0,1,.08,0,.06.06,0,0,1,0,.09l-.42.42Zm.84-.85h0a.08.08,0,0,1,0-.09l.42-.42a.06.06,0,1,1,.09.09l-.43.42Zm.85-.84s0,0-.05,0a.06.06,0,0,1,0-.08l.07-.07,0,0h.5a.06.06,0,0,1,.06.06.05.05,0,0,1-.06.06h-.47l0,.05A0,0,0,0,1,182.08,131.35Zm7.25-.07h-.13s0,0,0-.06a.06.06,0,0,1,0-.06h.13a.06.06,0,0,1,.06.06A.06.06,0,0,1,189.33,131.28Zm-.72,0H188a.06.06,0,0,1-.06-.06.06.06,0,0,1,.06-.06h.6a.06.06,0,0,1,.06.06A.06.06,0,0,1,188.61,131.28Zm-1.19,0h-.6a.06.06,0,0,1-.06-.06.06.06,0,0,1,.06-.06h.6a.06.06,0,0,1,.06.06A.06.06,0,0,1,187.42,131.28Zm-1.2,0h-.59a.05.05,0,0,1-.06-.06.06.06,0,0,1,.06-.06h.59a.06.06,0,0,1,.06.06A.05.05,0,0,1,186.22,131.28Zm-1.19,0h-.6a.06.06,0,0,1-.06-.06.06.06,0,0,1,.06-.06h.6a.06.06,0,0,1,.06.06A.06.06,0,0,1,185,131.28Zm-1.19,0h-.6a.06.06,0,0,1-.06-.06.06.06,0,0,1,.06-.06h.6a.06.06,0,0,1,.06.06A.06.06,0,0,1,183.84,131.28Z"/><path class="cls-32" d="M188.55,132.62h-4.89a.26.26,0,0,1-.26-.26h0a.26.26,0,0,1,.26-.26h4.89a.26.26,0,0,1,.26.26h0A.26.26,0,0,1,188.55,132.62Z"/><path class="cls-32" d="M181.35,163.31h-4.89a.26.26,0,0,1-.26-.26h0a.26.26,0,0,1,.26-.26h4.89a.25.25,0,0,1,.26.26h0A.26.26,0,0,1,181.35,163.31Z"/><rect class="cls-32" x="158.84" y="150.89" width="4.23" height="0.52" rx="0.26"/><path class="cls-32" d="M164.41,152.23s0,0,0,0l-.32-.5a.07.07,0,0,1,0-.09.06.06,0,0,1,.08,0l.32.5a.07.07,0,0,1,0,.09Zm-.64-1-.05,0-.33-.5a.07.07,0,0,1,0-.09.06.06,0,0,1,.08,0l.33.5s0,.07,0,.08Zm-.65-1-.05,0h-.54a.06.06,0,0,1-.05-.06s0-.06.05-.06h.57a.05.05,0,0,1,.05,0l0,0a.05.05,0,0,1,0,.08Zm-1.18,0h-.6a.06.06,0,0,1-.06-.06.06.06,0,0,1,.06-.06h.6a.06.06,0,0,1,.06.06A.06.06,0,0,1,161.94,150.2Zm-1.19,0h-.6a.06.06,0,0,1-.06-.06.06.06,0,0,1,.06-.06h.6s.05,0,.05.06A.06.06,0,0,1,160.75,150.2Z"/></g></g></svg>