<svg xmlns="http://www.w3.org/2000/svg" xmlns:xlink="http://www.w3.org/1999/xlink" viewBox="0 0 309.02 421.52"><defs><style>.cls-1{fill:none;}.cls-2{fill:#ededeb;}.cls-3{fill:#200660;}.cls-4{fill:#f5ac8e;}.cls-5{fill:#f5ad8c;}.cls-6{fill:#222221;}.cls-11,.cls-7{fill:#f18474;}.cls-8{fill:#2a2a8c;}.cls-9{fill:#f2e7e2;}.cls-10{fill:#4444ad;}.cls-11{opacity:0.39;}.cls-12{fill:#f08299;}.cls-13{fill:#fde17e;}.cls-14{fill:#59d2e5;}.cls-15{fill:#3c34b7;}.cls-16{fill:#fcbc00;}.cls-17{fill:#39297f;}.cls-18{fill:#5a39b5;}.cls-19{opacity:0.1;}.cls-20{fill:#9797db;}.cls-21{clip-path:url(#clip-path);}.cls-22{opacity:0.32;}</style><clipPath id="clip-path" transform="translate(0 21.25)"><path class="cls-1" d="M246.29.31c.33.8-81.21-13.44-186,84.23l65.9,81.13S245.31,85,246.29.31Z"/></clipPath></defs><g id="Layer_2" data-name="Layer 2"><g id="Layer_1-2" data-name="Layer 1"><path class="cls-2" d="M61.37,345.42c-10.92-17.23-1.08-41,14.64-54s36-18.89,54-28.37c21.63-11.36,41.24-28.34,65.39-32.05,19.49-3,40,3.6,54.84,16.58s24,32,26.05,51.57c4.05,38.89-22,78.85-59.16,90.89s-81.69-5.1-101.19-39" transform="translate(0 21.25)"/><path class="cls-3" d="M84.14,337.4s17.09-68.33,87.27-59S238.2,348,238.2,348l-37.82,2.81,1.17,42.62c-21,2.37-53.08-4.42-91.31-10.23l1.38-30.9Z" transform="translate(0 21.25)"/><path class="cls-4" d="M238.26,346.69s0,.45-.06,1.27c-.44,8.2-3.42,53.29-15.74,52.29-13.56-1.11-22.85-7.39-22.08-49.48l37.86-3.63" transform="translate(0 21.25)"/><path class="cls-4" d="M207.46,390.73s25.81-58.18,39.44-73.65L262.7,331s-24,71.5-39.76,69.26S207.46,390.73,207.46,390.73Z" transform="translate(0 21.25)"/><polygon class="cls-4" points="85.97 359.65 76.63 387.44 107.51 406.08 111.62 373.51 85.97 359.65"/><path class="cls-5" d="M152.29,268.87,149.8,287S172.55,300.52,186,283L196.13,215c-13.59-14.19-28.17-16.47-43.84-5.92C152.29,209.12,129.65,261.73,152.29,268.87Z" transform="translate(0 21.25)"/><path class="cls-6" d="M151.67,226.84a7.41,7.41,0,0,1,2.88-3.26,2.8,2.8,0,0,1,4.26,2c.06.28.54.3.59,0,.32-2-1.71-3.46-3.54-3.33-2.44.18-4,2.26-4.74,4.37-.13.32.39.53.55.23Z" transform="translate(0 21.25)"/><path class="cls-7" d="M164.35,238.13c.09.08,0,.44-.4,1a5,5,0,0,1-2.31,2,3.51,3.51,0,0,1-2.34,0,2.83,2.83,0,0,1-1.2-.85,2.91,2.91,0,0,1-.6-1.45,6.84,6.84,0,0,1,.41-2.71c.24-.82.51-1.65.81-2.5,2.39-6.82,5.82-11.62,6.24-11.35s-2.17,5.36-4.48,12c-.29.83-.57,1.64-.83,2.42a5.91,5.91,0,0,0-.44,2,1.12,1.12,0,0,0,.67,1,2.3,2.3,0,0,0,1.39.15,5.77,5.77,0,0,0,2.14-1.19C163.92,238.25,164.25,238.05,164.35,238.13Z" transform="translate(0 21.25)"/><path class="cls-7" d="M159.43,246.85c3,.54,7.14-.32,8.72-3.27a.36.36,0,0,0-.56-.44,13.58,13.58,0,0,1-3.42,2.46,8.54,8.54,0,0,1-4.55.56c-.45-.07-.65.6-.19.69Z" transform="translate(0 21.25)"/><path class="cls-7" d="M166.73,242.66a1.86,1.86,0,0,1,1.55.63,3.88,3.88,0,0,1,.69,1.5.32.32,0,0,0,.56.07,1.93,1.93,0,0,0-.58-2.24,2.56,2.56,0,0,0-2.31-.68c-.4.08-.32.76.09.72Z" transform="translate(0 21.25)"/><path class="cls-6" d="M176,229.44a4,4,0,0,1,4.19-2.17,4.14,4.14,0,0,1,3.08,3.56c.09.41.7.3.71-.1a4.48,4.48,0,0,0-3.6-4.38,4.59,4.59,0,0,0-5,2.76c-.18.38.39.72.58.33Z" transform="translate(0 21.25)"/><path class="cls-8" d="M153,209.58a65.11,65.11,0,0,1,11-4.69,22,22,0,0,1,11.81-.47c4.38,1.19,8.06,4.13,11.4,7.21,2.11,2,4.22,4.14,5,6.92.89,3.3-.3,6.75-1.28,10a81.34,81.34,0,0,0-2.38,10.47,9.53,9.53,0,0,0-.1,3.49,3.54,3.54,0,0,0,2.08,2.64l2.3-.71a73.11,73.11,0,0,0,11.7-20.55c1.23-3.31,2.23-6.87,1.63-10.36s-3.25-6.85-6.77-7.22c-2.27-.25-4.59.74-6.82.23-2.46-.56-4.13-2.76-5.82-4.64a33.57,33.57,0,0,0-23.34-11,20.3,20.3,0,0,0-10,1.87,11.48,11.48,0,0,0-6.24,7.77c-.65,3.39.93,7.23,4,8.72Z" transform="translate(0 21.25)"/><path class="cls-5" d="M192,238.21a4.06,4.06,0,0,1,5.22-1.08,5,5,0,0,1,2.28,5,6.55,6.55,0,0,1-3.34,4.58,5.49,5.49,0,0,1-5.9-.06" transform="translate(0 21.25)"/><path class="cls-8" d="M152.61,216.84c1.45.12,2.87-.47,4.3-.66a26.8,26.8,0,0,1,4.74,0,1.28,1.28,0,0,0,.34-2.51c-2.83-.63-7.88-.53-9.88,2a.73.73,0,0,0,.5,1.22Z" transform="translate(0 21.25)"/><path class="cls-8" d="M179.5,218.08a11.3,11.3,0,0,1,3.52,1.84,34,34,0,0,1,2.9,2.6,1.36,1.36,0,0,0,2.12-1.64,8.77,8.77,0,0,0-3.73-3.16,12.37,12.37,0,0,0-2.18-.79,18.46,18.46,0,0,0-2.46-.15c-.74-.1-.91,1.16-.17,1.3Z" transform="translate(0 21.25)"/><path class="cls-7" d="M197.5,240.93a2,2,0,0,0-2.33-2.31c-1.7.15-2.61,1.73-2.92,3.24a.48.48,0,0,0,.7.54,1.79,1.79,0,0,1,2.72.61c.51,1.21-.53,2.05-1.69,1.86-.47-.08-.85.59-.35.84a2.28,2.28,0,0,0,3.15-2.43c-.3-2.12-2.66-2.68-4.31-1.71l.7.54a3.23,3.23,0,0,1,1.3-2.23,1.57,1.57,0,0,1,2.4,1.05c.08.29.57.32.63,0Z" transform="translate(0 21.25)"/><path class="cls-6" d="M154.82,222.42a3.52,3.52,0,0,0-1,1.91,2.47,2.47,0,0,0,.6,2,1.92,1.92,0,0,0,2,.51,2,2,0,0,0,1.13-1.15,2.41,2.41,0,0,0-.32-2.44,2,2,0,0,0-2.34-.55" transform="translate(0 21.25)"/><path class="cls-6" d="M178.7,226.46a3.47,3.47,0,0,0-1,1.91,2.46,2.46,0,0,0,.59,2,1.91,1.91,0,0,0,2,.51,2.08,2.08,0,0,0,1.14-1.15,2.42,2.42,0,0,0-.33-2.44,2,2,0,0,0-2.33-.55" transform="translate(0 21.25)"/><path class="cls-7" d="M233.88,338.28c.46.3-5.66,10-12.11,22.52s-10.87,23.1-11.38,22.9c-.23-.09.57-2.85,2.23-7.2a173.32,173.32,0,0,1,16.67-32.24C231.88,340.39,233.67,338.14,233.88,338.28Z" transform="translate(0 21.25)"/><path class="cls-7" d="M216.44,368.36c.14.51-1.41,1.37-3.21,2.49s-3.29,2.08-3.68,1.72.65-2.06,2.7-3.31S216.31,367.87,216.44,368.36Z" transform="translate(0 21.25)"/><path class="cls-4" d="M267.6,322.4c-1.66,2.48-4.9,8.55-4.9,8.55l-22-4.54,8.12-15.94-1.9-15.2c3-1.8,6.48,10,6.48,10s13.36-6.19,14.62-2.05a3.42,3.42,0,0,1-1,3.39s3.1-1.14,3.77.54c.56,1.41-1.51,3.12-1.51,3.12a3,3,0,0,1,3.5,2C273.49,314.65,267.6,322.4,267.6,322.4Z" transform="translate(0 21.25)"/><path class="cls-7" d="M266.32,306.68c.07.13-.69.79-2.05,1.69a17.79,17.79,0,0,1-5.92,2.61,2.78,2.78,0,0,1-2.14-.41,2.08,2.08,0,0,1-.7-.92,1.64,1.64,0,0,1,.05-1.18,3.76,3.76,0,0,1,1.13-1.31,10.17,10.17,0,0,1,1.11-.8c1.42-.89,2.45-1.09,2.5-1s-.82.61-2,1.6c-.3.25-.63.53-.95.85a3.15,3.15,0,0,0-.79,1,.53.53,0,0,0,0,.43,1.07,1.07,0,0,0,.34.41,1.72,1.72,0,0,0,1.31.18,24.72,24.72,0,0,0,5.71-2.19C265.31,307,266.23,306.55,266.32,306.68Z" transform="translate(0 21.25)"/><path class="cls-7" d="M268.26,310.37c.09.13-.52.71-1.61,1.52a17.44,17.44,0,0,1-4.74,2.54,5.05,5.05,0,0,1-1.64.29,2.29,2.29,0,0,1-1.65-.62,1.93,1.93,0,0,1-.54-1.53,2.54,2.54,0,0,1,.43-1.23,3.78,3.78,0,0,1,1.28-1.14c.35-.18.56-.24.6-.18s-.08.24-.32.53a4.89,4.89,0,0,0-.88,1.19,1.42,1.42,0,0,0,.14,1.62,2.44,2.44,0,0,0,2.23,0,29.9,29.9,0,0,0,4.67-2.14C267.41,310.59,268.18,310.24,268.26,310.37Z" transform="translate(0 21.25)"/><path class="cls-7" d="M270.87,314.65c.11.1-.25.74-1.14,1.5a8.28,8.28,0,0,1-4.2,1.83,3.59,3.59,0,0,1-1.45-.14,2,2,0,0,1-1.18-.95,2.31,2.31,0,0,1,.16-2.32,3.43,3.43,0,0,1,1-1c.26-.19.44-.26.49-.2s0,.23-.18.5a6.74,6.74,0,0,0-.6,1.08,1.62,1.62,0,0,0,0,1.44,1.67,1.67,0,0,0,1.63.49,10.69,10.69,0,0,0,3.85-1.35C270.21,315,270.75,314.54,270.87,314.65Z" transform="translate(0 21.25)"/><path class="cls-7" d="M252.6,310.6a7.62,7.62,0,0,1,4.93,2.41c1.25,1.41,1.52,3,2,4.7.11.39.8.46.86,0,.59-4.36-3.88-7.7-7.81-7.83-.47,0-.45.68,0,.72Z" transform="translate(0 21.25)"/><path class="cls-9" d="M156.79,224.93a5.22,5.22,0,0,0,1.31,0,.24.24,0,0,0,0-.46,4.79,4.79,0,0,0-1.31,0,.24.24,0,0,0,0,.47Z" transform="translate(0 21.25)"/><path class="cls-9" d="M180.65,229a7.54,7.54,0,0,0,1.25.11c.29,0,.42-.5.08-.56a9.85,9.85,0,0,0-1.33,0c-.26,0-.26.4,0,.42Z" transform="translate(0 21.25)"/><path class="cls-10" d="M190.69,244.57a24.65,24.65,0,0,1,6.88-13.75c2.74-2.72,5.83-4.92,7.12-8.71.25-.74-.89-1-1.17-.32-1.79,4.72-6.52,7.22-9.37,11.22a23.13,23.13,0,0,0-4.07,11.48c0,.34.55.42.61.08Z" transform="translate(0 21.25)"/><path class="cls-10" d="M156.17,192.4c-3.68,7.28,5.81,11.08,11.3,12,.55.09.79-.71.24-.84-5.16-1.27-13.8-3.79-11.34-11.08,0-.11-.14-.19-.2-.08Z" transform="translate(0 21.25)"/><path class="cls-10" d="M190.31,244.07c-1.88-8.25,2.44-14.68,5.5-22,2-4.65,3.15-9.8,1.24-14.67-.24-.61-1.22-.37-1,.28,4.2,13.1-11.34,23.67-6.49,36.56a.39.39,0,0,0,.76-.21Z" transform="translate(0 21.25)"/><path class="cls-10" d="M187.62,211.42a17.89,17.89,0,0,0-6.16-11.67c-3.88-3.41-10-3.68-13.19-7.72-.33-.42-1,.12-.73.56,2.15,3.55,6.59,3.84,10,5.67,5.17,2.82,8.08,7.7,9.6,13.23.08.27.54.23.51-.07Z" transform="translate(0 21.25)"/><path class="cls-11" d="M183.25,240.37a6.15,6.15,0,0,1-3.3,3.38,6.52,6.52,0,0,1-4.79.24c-3.74-1-6.1-4.32-5.29-7.54s4.5-5,8.24-4.1a8.57,8.57,0,0,1,4.56,3.35A5.17,5.17,0,0,1,183.25,240.37Z" transform="translate(0 21.25)"/><path class="cls-2" d="M70.58,163.91C53,182.41,37.46,203.27,28.1,227S16,277.61,23.72,301.91c9.2,28.79,32.45,51.56,59.15,65.72s56.78,20.61,86.67,25.05c2.77.41,5.8.76,8.19-.71,4.94-3,2.75-11.34-2.25-14.26s-11.19-2.44-17-2.91A49.13,49.13,0,0,1,122,353.19c-4-6-7.12-13.44-13.79-16.23-7.77-3.26-16.56,1.34-25,1-14.1-.64-23.46-14.39-30.48-26.64C46.29,300,39.7,288.37,37.83,275.5c-1.46-10,0-20.22,1.54-30.25C43.5,217.68,53,186.07,70.58,163.91" transform="translate(0 21.25)"/><path class="cls-12" d="M148.47,389c-16-2-32.53,5.51-46.36-2.08-4.55-2.49-7.86-6.9-12.52-9.15-7.47-3.62-16.29-.94-24.59-.95a37.92,37.92,0,0,1-33.91-22.26c-1.67-3.84-2.61-8.5-.41-12.07,2.47-4,8.13-5,12.56-3.44s7.88,5,11,8.49,6.26,7.17,10.41,9.35c9.48,5,22,1.08,31.13,6.68,6.6,4.06,9.85,12.22,16.52,16.18,8.11,4.8,36.05-.66,36.15,9.25" transform="translate(0 21.25)"/><path class="cls-13" d="M47.75,181.59c-.63,5.19-6.07,8.21-11,10.08s-10.47,4-12.31,8.88c-1.17,3.08-.54,6.68-2,9.6-2.07,4-7.6,5.66-9,10-1.3,4,2.14,8.47,6.28,9.18s8.36-1.62,11-4.92,3.88-7.44,4.89-11.52,1.78-8.07,3.85-11.6c1.51-2.58,3.65-4.75,5.16-7.32s4.49-9.68,3.16-12.35" transform="translate(0 21.25)"/><path class="cls-13" d="M2,258.53c-.42.41-3.14,4.61-1.38,7.9A7,7,0,0,0,10.23,269a7,7,0,0,0,1.65-9.81A6.94,6.94,0,0,0,2,258.53" transform="translate(0 21.25)"/><path class="cls-14" d="M38.4,248.74c2.76-1.61,5.9.31,7.19,3.23s.73,6.31-.17,9.38-2.13,6.1-2.14,9.29c0,8.33,7.88,14.31,11.2,21.95,1.16,2.67,1.78,5.59,3.35,8,2.12,3.3,5.69,5.32,8.69,7.85s5.64,6.3,4.76,10.12c-1,4.39-6.45,6.56-10.82,5.49s-7.79-4.43-10.67-7.89A71.8,71.8,0,0,1,34,284c-2.29-11.86-1-24.5,4.38-35.3" transform="translate(0 21.25)"/><path class="cls-12" d="M85.36,341.88a7.12,7.12,0,0,0-2.8,5.66A5.8,5.8,0,0,0,84.91,352a9,9,0,0,0,4.85,1.7c2.46.17,5.17-.53,6.62-2.52a6.12,6.12,0,0,0-.14-6.94,8.5,8.5,0,0,0-6.34-3.34,7.84,7.84,0,0,0-4.16.76,5.25,5.25,0,0,0-2.69,3.17" transform="translate(0 21.25)"/><path class="cls-15" d="M233.75,360.32c5.69,4,30.7-14.74,40.46-29.26s12.6-34.58,3.6-49.58c-2-3.4-4.63-6.51-6.06-10.2s-1.42-8.33,1.36-11.16c3-3.08,8.34-2.8,12-.53s6.17,6,8.52,9.67c5.15,8,10.36,16.06,13.23,25.1s3.19,19.31-1.28,27.69c-4.22,7.91-12,13.14-18.35,19.51-5.41,5.46-9.81,11.85-15.13,17.4s-11.94,10.36-19.56,11.38-16.25-2.77-18.82-10" transform="translate(0 21.25)"/><path class="cls-15" d="M217.93,227c3.22-1.83,7.31-.78,10.6.93s6.29,4.07,9.89,4.95,8.13-.35,9.35-3.84c.88-2.52-.3-5.39-2.2-7.25a21.24,21.24,0,0,0-6.88-4c-4.06-1.71-8.35-3.45-12.74-3s-8.78,4-8.55,8.41" transform="translate(0 21.25)"/><path class="cls-15" d="M271.31,229.83a9,9,0,0,0,4.79,10.9,8.73,8.73,0,0,0,11-4.29,8.48,8.48,0,0,0-4.37-10.89c-4.06-1.62-10.18.09-11.43,4.28" transform="translate(0 21.25)"/><path class="cls-15" d="M87.08,302.62c2.65-6.26,5.58-12.1,7.66-18.6,2.15-6.74,3.76-13.63,6.38-20.23,4.47-11.25,11.53-20.78,22.57-26.16,2.51-1.22.75-5.48-1.91-4.54-11.42,4-19.4,14.46-24.39,25.08a134.88,134.88,0,0,0-6.89,19.25c-1.11,3.76-2,7.58-3,11.39-1,4.1-1.54,8.26-3.21,12.18-.8,1.89,2,3.53,2.79,1.63Z" transform="translate(0 21.25)"/><path class="cls-16" d="M99.67,125.2a46,46,0,0,0-67.5,11.14l12.16-1.08c-3.38,3.45-6.86,7.06-8.44,11.62s-.68,10.37,3.37,13c3.25,2.13,7.53,1.69,11.31.79s7.66-2.18,11.49-1.47,7.46,4.37,6.47,8.13c-1.63,6.23-12.94,6-13.78,12.36-.49,3.68,3.23,6.57,6.78,7.66,12.68,3.92,26.59-4.73,32.83-16.45s6.53-25.63,6-38.9" transform="translate(0 21.25)"/><path class="cls-16" d="M45.91,184.92c1.49-2.52-1.69-5.33-3.92-5.74a5.53,5.53,0,0,0-6.46,4.67,5.22,5.22,0,0,0,5.73,5.57,5.46,5.46,0,0,0,4.63-6.9,2.6,2.6,0,0,0-2.07-1.62,2.77,2.77,0,0,0-3,2.87s-.23.47,0,.24a.14.14,0,0,1,.14,0c.13.08,0,0-.25-.1,0,0,.14.09.13.11a.94.94,0,0,1,.91-.24c1,.25,1.68,1.32,2.66,1.72a1.25,1.25,0,0,0,1.58-.62Z" transform="translate(0 21.25)"/><path class="cls-16" d="M57.85,197.7a1,1,0,0,0,1.91.28,1,1,0,0,0-1.91-.28Z" transform="translate(0 21.25)"/><path class="cls-16" d="M156.53,136.84s12.92,72.64-64.24,67.51c0,0,37-16.31,32-40.13Z" transform="translate(0 21.25)"/><path class="cls-2" d="M246.25.71S166.32-12,61.82,86.48l64.32,79.19S245.27,85.37,246.25.71Z" transform="translate(0 21.25)"/><polygon class="cls-17" points="126.14 186.92 60.24 105.79 55.02 108.95 122.54 191.56 126.14 186.92"/><path class="cls-18" d="M122.32,98.47,92.11,116.2,49.28,159.62s34.56-17.09,50.51-31C104.76,124.34,118,109.91,122.32,98.47Z" transform="translate(0 21.25)"/><path class="cls-16" d="M91.09,61.12S18.85,39.5,16.69,116.8c0,0,19.73-35.27,43-28Z" transform="translate(0 21.25)"/><g class="cls-19"><path class="cls-20" d="M122.32,98.47s-42.42.79-47.6,3.9l16.45,20.25Z" transform="translate(0 21.25)"/></g><g class="cls-21"><path class="cls-16" d="M189.29,6.52s18.59,37.88,40,51.82L263,26.24,238.39-21.25,189.46,5.38" transform="translate(0 21.25)"/></g><path class="cls-15" d="M172.58,39.18c-13.7-1.66-21.75,11.26-21.26,23.69.48,11.86,12.18,21.18,23.76,19.33,12.13-2,20.64-13,18.61-25.35-2.1-12.78-15.46-23.52-28.59-19a3.22,3.22,0,0,0,.85,6.29c8.23.27,15.25,1.75,19.72,9.41,4.77,8.19-.32,18.58-8.52,21.76-22.65,8.8-28.42-33.12-4.57-33.61a1.26,1.26,0,0,0,0-2.51Z" transform="translate(0 21.25)"/><g class="cls-22"><path class="cls-15" d="M172.58,40.44c-6.86-.92-13.49,4.06-16.47,10.31a21.8,21.8,0,0,0-1.56,14.56A19,19,0,0,0,163.18,77c7.2,4.22,17.25,2.45,22.79-3.79S192.14,57,187.67,50a21.24,21.24,0,0,0-21.72-9" transform="translate(0 21.25)"/></g></g></g></svg>